# xmcd CD database file
#
# Track frame offsets:
#	150
#	20099
#	37846
#	60209
#	78649
#	95163
#	116017
#	132713
#	150203
#	167243
#	186310
#	201306
#	219607
#
# Disc length: 3133 seconds
#
# Revision: 0
# Processed by: cddbd v1.5.2PL0 Copyright (c) Steve Scherf et al.
# Submitted via: CDex 1.51
#
DISCID=b70c3b0d
DTITLE=Kai Peterson - A Little Bit Of Hope
DYEAR=2007
DGENRE=Jazz
TTITLE0=Kai Peterson - Laying Low
TTITLE1=Kai Peterson - Please Forgive Me
TTITLE2=Kai Peterson - The Art Of Falling In Love
TTITLE3=Kai Peterson - Educated Fool
TTITLE4=Kai Peterson - Faith, Shame, Hate and Lust
TTITLE5=Kai Peterson - Dance In The Shadow
TTITLE6=Kai Peterson - She Did No Good To Me
TTITLE7=Kai Peterson - Yellows And Greys
TTITLE8=Kai Peterson - Catch Me
TTITLE9=Kai Peterson - Things Ain't Ever
TTITLE10=Kai Peterson - Protect Me
TTITLE11=Kai Peterson - Serious Bar Talk
TTITLE12=Kai Peterson - A Little Bit Of Hope
EXTD=YEAR: 2007
EXTT0=
EXTT1=
EXTT2=
EXTT3=
EXTT4=
EXTT5=
EXTT6=
EXTT7=
EXTT8=
EXTT9=
EXTT10=
EXTT11=
EXTT12=
PLAYORDER=
